<svg width="984" height="744" viewBox="0 0 984 744" fill="none" xmlns="http://www.w3.org/2000/svg">
<g clip-path="url(#clip0_13_5)">
<path d="M736.366 547.634L236.679 533.2C225.444 532.885 214.708 528.452 206.483 520.73C198.257 513.009 193.106 502.528 191.995 491.253L167.876 251.003C167.234 244.572 167.923 238.077 169.901 231.929C171.879 225.781 175.102 220.114 179.366 215.287C183.63 210.46 188.842 206.579 194.672 203.889C200.501 201.198 206.822 199.758 213.232 199.659L769.423 191.909C776.037 191.819 782.593 193.158 788.651 195.836C794.709 198.513 800.128 202.468 804.544 207.433C808.959 212.398 812.268 218.259 814.249 224.622C816.23 230.984 816.837 237.7 816.028 244.319L783.645 506.753C782.237 518.282 776.608 528.865 767.862 536.428C759.116 543.99 747.884 547.987 736.366 547.634Z" fill="#E9FBFB"/>
<path d="M664.392 612.831H1063.66C1067.48 612.831 1071.15 611.3 1073.85 608.575C1076.56 605.85 1078.08 602.154 1078.08 598.3V370.063C1078.08 366.209 1076.56 362.512 1073.85 359.787C1071.15 357.062 1067.48 355.531 1063.66 355.531H664.392C660.569 355.531 656.903 357.062 654.2 359.787C651.497 362.512 649.978 366.209 649.978 370.063V598.3C649.978 602.154 651.497 605.85 654.2 608.575C656.903 611.3 660.569 612.831 664.392 612.831Z" stroke="#4FBDBA" stroke-width="1.8" stroke-linecap="round" stroke-linejoin="round"/>
<path d="M136.741 597.525H539.47C543.293 597.525 546.959 595.994 549.662 593.269C552.366 590.544 553.884 586.848 553.884 582.994V249.453C553.884 245.599 552.366 241.903 549.662 239.178C546.959 236.453 543.293 234.922 539.47 234.922H136.741C132.918 234.922 129.252 236.453 126.549 239.178C123.846 241.903 122.327 245.599 122.327 249.453V582.994C122.327 586.848 123.846 590.544 126.549 593.269C129.252 595.994 132.918 597.525 136.741 597.525Z" stroke="#4FBDBA" stroke-width="1.8" stroke-linecap="round" stroke-linejoin="round"/>
<path d="M686.109 355.434H705.616C706.632 355.437 707.614 355.064 708.376 354.385C709.138 353.707 709.626 352.77 709.748 351.753L711.286 337.803C711.349 337.218 711.289 336.625 711.111 336.065C710.932 335.504 710.638 334.988 710.249 334.549C709.859 334.11 709.382 333.759 708.848 333.519C708.315 333.278 707.738 333.154 707.154 333.153H684.572C683.988 333.155 683.411 333.281 682.879 333.522C682.346 333.763 681.87 334.114 681.48 334.552C681.091 334.99 680.797 335.506 680.618 336.066C680.438 336.626 680.378 337.218 680.44 337.803L681.977 351.753C682.099 352.77 682.588 353.707 683.349 354.385C684.111 355.064 685.093 355.437 686.109 355.434Z" stroke="#4FBDBA" stroke-width="1.8" stroke-linecap="round" stroke-linejoin="round"/>
<path d="M698.121 333.25C698.121 333.25 705.808 332.475 707.346 322.012C707.346 322.012 700.427 324.047 698.217 328.988C698.217 328.988 697.256 317.944 692.067 316.878C692.067 316.878 689.761 325.112 693.412 329.181C693.412 329.181 690.626 324.531 683.515 324.628C684.187 326.668 685.343 328.512 686.884 329.998C688.425 331.484 690.304 332.567 692.355 333.153" fill="#4FBDBA"/>
<path d="M219.382 336.35H238.889C239.905 336.353 240.887 335.979 241.649 335.301C242.411 334.622 242.899 333.686 243.021 332.669L244.559 318.719C244.622 318.133 244.562 317.541 244.384 316.98C244.205 316.42 243.911 315.903 243.521 315.465C243.132 315.026 242.655 314.675 242.121 314.434C241.588 314.194 241.011 314.069 240.427 314.069H217.844C217.261 314.071 216.684 314.196 216.152 314.437C215.619 314.678 215.143 315.029 214.753 315.468C214.364 315.906 214.07 316.422 213.891 316.982C213.711 317.542 213.651 318.134 213.712 318.719L215.25 332.669C215.374 333.685 215.863 334.62 216.624 335.299C217.385 335.977 218.366 336.351 219.382 336.35Z" stroke="#4FBDBA" stroke-width="1.8" stroke-linecap="round" stroke-linejoin="round"/>
<path d="M231.393 314.069C231.393 314.069 239.081 313.294 240.618 302.831C240.618 302.831 233.7 304.866 231.489 309.806C231.489 309.806 230.529 298.762 225.339 297.697C225.339 297.697 223.033 305.931 226.685 310C226.685 310 223.898 305.35 216.787 305.447C217.459 307.487 218.616 309.331 220.157 310.817C221.698 312.303 223.576 313.386 225.628 313.972" fill="#4FBDBA"/>
<path d="M667.467 403.678H754.143C755.211 403.671 756.234 403.239 756.989 402.478C757.744 401.717 758.172 400.686 758.179 399.609V372.969C758.172 371.892 757.744 370.862 756.989 370.1C756.234 369.339 755.211 368.908 754.143 368.9H667.467C666.399 368.908 665.377 369.339 664.621 370.1C663.866 370.862 663.438 371.892 663.431 372.969V399.512C663.425 400.053 663.524 400.59 663.723 401.092C663.923 401.594 664.218 402.051 664.593 402.438C664.968 402.825 665.415 403.133 665.908 403.346C666.401 403.559 666.931 403.672 667.467 403.678Z" stroke="#4FBDBA" stroke-width="1.8" stroke-linecap="round" stroke-linejoin="round"/>
<path d="M700.812 378.394H720.799C721.178 378.384 721.539 378.228 721.808 377.957C722.076 377.687 722.231 377.323 722.24 376.941C722.231 376.558 722.076 376.194 721.808 375.924C721.539 375.654 721.178 375.497 720.799 375.488H700.812C700.432 375.497 700.071 375.654 699.803 375.924C699.535 376.194 699.38 376.558 699.37 376.941V376.941C699.38 377.323 699.535 377.687 699.803 377.957C700.071 378.228 700.432 378.384 700.812 378.394V378.394Z" fill="#4FBDBA"/>
<path d="M667.467 448.047H754.144C755.212 448.039 756.234 447.608 756.989 446.847C757.744 446.085 758.172 445.055 758.18 443.978V417.434C758.172 416.358 757.744 415.327 756.989 414.566C756.234 413.804 755.212 413.373 754.144 413.366H667.467C666.399 413.373 665.377 413.804 664.622 414.566C663.866 415.327 663.439 416.358 663.431 417.434V443.978C663.439 445.055 663.866 446.085 664.622 446.847C665.377 447.608 666.399 448.039 667.467 448.047V448.047Z" stroke="#4FBDBA" stroke-width="1.8" stroke-linecap="round" stroke-linejoin="round"/>
<path d="M700.812 422.762H720.799C721.178 422.753 721.539 422.596 721.808 422.326C722.076 422.056 722.231 421.692 722.24 421.309C722.231 420.927 722.076 420.563 721.808 420.293C721.539 420.022 721.178 419.866 720.799 419.856H700.812C700.432 419.866 700.071 420.022 699.803 420.293C699.535 420.563 699.38 420.927 699.37 421.309V421.309C699.38 421.692 699.535 422.056 699.803 422.326C700.071 422.596 700.432 422.753 700.812 422.762V422.762Z" fill="#4FBDBA"/>
<path d="M222.361 479.434H309.037C310.105 479.427 311.127 478.996 311.883 478.234C312.638 477.473 313.066 476.442 313.073 475.366V448.822C313.066 447.745 312.638 446.715 311.883 445.953C311.127 445.192 310.105 444.761 309.037 444.753H222.361C221.293 444.761 220.27 445.192 219.515 445.953C218.76 446.715 218.332 447.745 218.325 448.822V475.366C218.332 476.442 218.76 477.473 219.515 478.234C220.27 478.996 221.293 479.427 222.361 479.434V479.434Z" stroke="#4FBDBA" stroke-width="1.8" stroke-linecap="round" stroke-linejoin="round"/>
<path d="M255.802 454.053H275.789C276.168 454.043 276.529 453.887 276.798 453.617C277.066 453.346 277.221 452.982 277.231 452.6C277.221 452.218 277.066 451.854 276.798 451.583C276.529 451.313 276.168 451.157 275.789 451.147H255.802C255.422 451.157 255.061 451.313 254.793 451.583C254.525 451.854 254.37 452.218 254.36 452.6V452.6C254.349 452.794 254.379 452.988 254.447 453.169C254.516 453.351 254.621 453.515 254.758 453.653C254.894 453.79 255.057 453.896 255.237 453.965C255.417 454.035 255.609 454.064 255.802 454.053V454.053Z" fill="#4FBDBA"/>
<path d="M333.638 479.434H420.314C421.382 479.427 422.404 478.996 423.16 478.234C423.915 477.473 424.342 476.442 424.35 475.366V448.822C424.342 447.745 423.915 446.715 423.16 445.953C422.404 445.192 421.382 444.761 420.314 444.753H333.638C332.569 444.761 331.547 445.192 330.792 445.953C330.037 446.715 329.609 447.745 329.602 448.822V475.366C329.609 476.442 330.037 477.473 330.792 478.234C331.547 478.996 332.569 479.427 333.638 479.434V479.434Z" stroke="#4FBDBA" stroke-width="1.8" stroke-linecap="round" stroke-linejoin="round"/>
<path d="M367.078 454.053H387.065C387.445 454.043 387.806 453.887 388.074 453.617C388.342 453.346 388.497 452.982 388.507 452.6C388.497 452.218 388.342 451.854 388.074 451.583C387.806 451.313 387.445 451.157 387.065 451.147H367.078C366.699 451.157 366.338 451.313 366.07 451.583C365.801 451.854 365.646 452.218 365.637 452.6V452.6C365.625 452.794 365.655 452.988 365.724 453.169C365.792 453.351 365.898 453.515 366.034 453.653C366.17 453.79 366.333 453.896 366.513 453.965C366.693 454.035 366.886 454.064 367.078 454.053V454.053Z" fill="#4FBDBA"/>
<path d="M777.975 403.678H864.651C865.719 403.671 866.741 403.239 867.497 402.478C868.252 401.717 868.68 400.686 868.687 399.609V372.969C868.68 371.892 868.252 370.862 867.497 370.1C866.741 369.339 865.719 368.908 864.651 368.9H777.975C776.907 368.908 775.884 369.339 775.129 370.1C774.374 370.862 773.946 371.892 773.939 372.969V399.512C773.932 400.053 774.032 400.59 774.231 401.092C774.431 401.594 774.726 402.051 775.101 402.438C775.476 402.825 775.922 403.133 776.415 403.346C776.909 403.559 777.438 403.672 777.975 403.678Z" stroke="#4FBDBA" stroke-width="1.8" stroke-linecap="round" stroke-linejoin="round"/>
<path d="M811.319 378.394H831.307C831.686 378.384 832.047 378.228 832.315 377.957C832.584 377.687 832.739 377.323 832.748 376.941V376.941C832.739 376.558 832.584 376.194 832.315 375.924C832.047 375.654 831.686 375.497 831.307 375.488H811.319C810.94 375.497 810.579 375.654 810.311 375.924C810.043 376.194 809.888 376.558 809.878 376.941C809.888 377.323 810.043 377.687 810.311 377.957C810.579 378.228 810.94 378.384 811.319 378.394V378.394Z" fill="#4FBDBA"/>
<path d="M777.975 448.047H864.651C865.719 448.039 866.742 447.608 867.497 446.847C868.252 446.085 868.68 445.055 868.687 443.978V417.434C868.68 416.358 868.252 415.327 867.497 414.566C866.742 413.804 865.719 413.373 864.651 413.366H777.975C776.907 413.373 775.885 413.804 775.129 414.566C774.374 415.327 773.947 416.358 773.939 417.434V443.978C773.947 445.055 774.374 446.085 775.129 446.847C775.885 447.608 776.907 448.039 777.975 448.047V448.047Z" stroke="#4FBDBA" stroke-width="1.8" stroke-linecap="round" stroke-linejoin="round"/>
<path d="M811.319 422.762H831.307C831.686 422.753 832.047 422.596 832.315 422.326C832.584 422.056 832.739 421.692 832.748 421.309V421.309C832.739 420.927 832.584 420.563 832.315 420.293C832.047 420.022 831.686 419.866 831.307 419.856H811.319C810.94 419.866 810.579 420.022 810.311 420.293C810.043 420.563 809.888 420.927 809.878 421.309V421.309C809.888 421.692 810.043 422.056 810.311 422.326C810.579 422.596 810.94 422.753 811.319 422.762V422.762Z" fill="#4FBDBA"/>
<path d="M96.1899 336.447H533.416C534.585 336.434 535.702 335.961 536.528 335.128C537.355 334.295 537.824 333.169 537.837 331.991V254.781C537.824 253.603 537.355 252.477 536.528 251.644C535.702 250.811 534.585 250.338 533.416 250.325H96.1899C95.0214 250.338 93.9043 250.811 93.078 251.644C92.2518 252.477 91.782 253.603 91.7695 254.781V331.991C91.7683 332.576 91.8817 333.156 92.1034 333.697C92.3251 334.239 92.6507 334.73 93.0614 335.145C93.4721 335.559 93.9599 335.887 94.4968 336.11C95.0336 336.334 95.609 336.448 96.1899 336.447V336.447Z" stroke="#4FBDBA" stroke-width="1.8" stroke-linecap="round" stroke-linejoin="round"/>
<path d="M96.1898 432.353H533.416C534.585 432.341 535.702 431.867 536.528 431.034C537.355 430.201 537.824 429.075 537.837 427.897V350.688C537.824 349.51 537.355 348.383 536.528 347.55C535.702 346.717 534.585 346.244 533.416 346.231H96.1898C95.0214 346.244 93.9043 346.717 93.078 347.55C92.2518 348.383 91.782 349.51 91.7695 350.688V427.897C91.782 429.075 92.2518 430.201 93.078 431.034C93.9043 431.867 95.0214 432.341 96.1898 432.353V432.353Z" stroke="#4FBDBA" stroke-width="1.8" stroke-linecap="round" stroke-linejoin="round"/>
<path d="M508.461 287.806H498.947V336.534H508.461V287.806Z" stroke="#B8D8C7" stroke-width="1.8" stroke-linecap="round" stroke-linejoin="round"/>
<path d="M498.909 300.991H489.011V336.447H498.909V300.991Z" stroke="#B8D8C7" stroke-width="1.8" stroke-linecap="round" stroke-linejoin="round"/>
<path d="M221.736 383.46H212.223V432.188H221.736V383.46Z" stroke="#4FBDBA" stroke-width="1.8" stroke-linecap="round" stroke-linejoin="round"/>
<path d="M212.184 396.742H202.287V432.198H212.184V396.742Z" stroke="#4FBDBA" stroke-width="1.8" stroke-linecap="round" stroke-linejoin="round"/>
<path d="M241.042 383.46H231.528V432.188H241.042V383.46Z" stroke="#4FBDBA" stroke-width="1.8" stroke-linecap="round" stroke-linejoin="round"/>
<path d="M249.957 382.455L240.885 385.342L255.436 431.81L264.508 428.923L249.957 382.455Z" stroke="#4FBDBA" stroke-width="1.8" stroke-linecap="round" stroke-linejoin="round"/>
<path d="M231.586 396.742H221.688V432.198H231.586V396.742Z" stroke="#4FBDBA" stroke-width="1.8" stroke-linecap="round" stroke-linejoin="round"/>
<path d="M422.716 294.113L421.659 279.678C421.639 279.452 421.666 279.224 421.739 279.01C421.813 278.796 421.931 278.599 422.085 278.434C422.24 278.269 422.428 278.139 422.636 278.053C422.844 277.967 423.068 277.927 423.293 277.934H431.557C431.779 277.935 431.999 277.982 432.203 278.071C432.407 278.16 432.591 278.29 432.744 278.453C432.897 278.617 433.015 278.809 433.092 279.02C433.169 279.23 433.202 279.454 433.19 279.678L432.133 294.113C432.133 294.113 440.782 299.731 440.686 304.381C440.59 307.966 438.476 325.113 437.515 332.669C437.392 333.686 436.904 334.622 436.143 335.301C435.381 335.979 434.399 336.353 433.383 336.35H421.467C420.451 336.353 419.469 335.979 418.707 335.301C417.946 334.622 417.457 333.686 417.335 332.669C416.374 325.113 414.26 307.966 414.164 304.381C414.068 299.731 422.716 294.113 422.716 294.113Z" fill="#4FBDBA"/>
<path d="M380.243 294.113L379.186 279.678C379.165 279.452 379.192 279.224 379.266 279.01C379.339 278.796 379.457 278.599 379.612 278.434C379.766 278.269 379.954 278.139 380.162 278.053C380.37 277.967 380.594 277.927 380.819 277.934H389.083C389.306 277.935 389.526 277.982 389.73 278.071C389.934 278.16 390.118 278.29 390.271 278.453C390.423 278.617 390.542 278.809 390.618 279.02C390.695 279.23 390.729 279.454 390.717 279.678L389.66 294.113C389.66 294.113 398.308 299.731 398.212 304.381C398.116 307.966 396.002 325.113 395.041 332.669C394.919 333.686 394.43 334.622 393.669 335.301C392.907 335.979 391.925 336.353 390.909 336.35H378.993C377.977 336.353 376.995 335.979 376.233 335.301C375.472 334.622 374.984 333.686 374.861 332.669C373.9 325.113 371.786 307.966 371.69 304.381C371.594 299.731 380.243 294.113 380.243 294.113Z" fill="#4FBDBA"/>
<path d="M804.497 523.803H-91.9619" stroke="#4FBDBA" stroke-width="1.8" stroke-linecap="round" stroke-linejoin="round"/>
<path d="M407.341 432.353H327.391C326.143 432.351 324.947 431.85 324.065 430.96C323.182 430.07 322.685 428.864 322.683 427.606V414.916C322.685 413.657 323.182 412.452 324.065 411.562C324.947 410.672 326.143 410.171 327.391 410.169H407.341C408.589 410.171 409.785 410.672 410.668 411.562C411.55 412.452 412.047 413.657 412.05 414.916V427.606C412.047 428.864 411.55 430.07 410.668 430.96C409.785 431.85 408.589 432.351 407.341 432.353V432.353Z" stroke="#4FBDBA" stroke-width="1.8" stroke-linecap="round" stroke-linejoin="round"/>
<path d="M396.099 389.728H338.442V410.072H396.099V389.728Z" stroke="#4FBDBA" stroke-width="1.8" stroke-linecap="round" stroke-linejoin="round"/>
<path d="M331.716 418.984C332.512 418.984 333.157 418.334 333.157 417.531C333.157 416.729 332.512 416.078 331.716 416.078C330.92 416.078 330.274 416.729 330.274 417.531C330.274 418.334 330.92 418.984 331.716 418.984Z" fill="#4FBDBA"/>
<path d="M417.335 410.556L457.887 395.347C458.644 395.051 459.296 394.532 459.759 393.859C460.221 393.185 460.473 392.388 460.481 391.569V391.569L379.955 385.756L392.351 408.231L413.299 411.041C414.663 411.222 416.051 411.055 417.335 410.556V410.556Z" fill="#63737A"/>
<path d="M315.283 395.734L307.98 338.288C307.935 337.911 307.972 337.53 308.088 337.17C308.204 336.81 308.398 336.479 308.654 336.203C308.91 335.926 309.224 335.709 309.572 335.567C309.921 335.425 310.296 335.362 310.671 335.381L408.11 342.356C408.809 342.402 409.467 342.702 409.962 343.201C410.457 343.701 410.755 344.364 410.801 345.069L416.566 408.328C416.604 408.715 416.555 409.106 416.422 409.471C416.29 409.836 416.077 410.166 415.799 410.436C415.522 410.706 415.187 410.91 414.821 411.031C414.455 411.153 414.066 411.189 413.683 411.138L317.782 398.35C317.144 398.237 316.559 397.923 316.11 397.453C315.661 396.983 315.371 396.381 315.283 395.734Z" fill="#22272E"/>
<path d="M460.481 391.666C460.486 392.488 460.24 393.292 459.776 393.968C459.311 394.644 458.652 395.159 457.887 395.444L417.335 410.653C416.328 411.056 415.244 411.222 414.164 411.137C413.147 410.308 412.298 409.289 411.666 408.134L460.481 391.666Z" fill="#22272E"/>
<path d="M361.831 376.688C364.393 374.781 364.68 370.793 362.474 367.78C360.267 364.767 356.402 363.871 353.84 365.777C351.278 367.684 350.99 371.672 353.197 374.685C355.404 377.698 359.269 378.595 361.831 376.688Z" fill="#63737A"/>
<path d="M587.421 135.722H558.017L555.038 137.659C554.818 137.803 554.564 137.883 554.302 137.891C554.041 137.899 553.782 137.835 553.554 137.705C553.326 137.575 553.138 137.385 553.01 137.155C552.882 136.925 552.819 136.664 552.827 136.4V115.378C552.827 114.35 553.232 113.365 553.953 112.638C554.674 111.911 555.652 111.503 556.671 111.503H587.517C588.537 111.503 589.514 111.911 590.235 112.638C590.956 113.365 591.361 114.35 591.361 115.378V131.75C591.341 132.797 590.92 133.796 590.185 134.537C589.451 135.277 588.46 135.702 587.421 135.722Z" fill="#F4C2C9"/>
<path d="M571.662 121.191H581.944" stroke="#22272E" stroke-width="1.8" stroke-linecap="round" stroke-linejoin="round"/>
<path d="M571.662 126.519H577.908" stroke="#22272E" stroke-width="1.8" stroke-linecap="round" stroke-linejoin="round"/>
<path d="M566.376 121.191H561.091V126.519H566.376V121.191Z" stroke="#22272E" stroke-width="1.8" stroke-linecap="round" stroke-linejoin="round"/>
<path d="M411.762 292.563L249.363 317.363C248.506 317.496 247.63 317.448 246.792 317.223C245.953 316.997 245.17 316.599 244.493 316.052C243.815 315.506 243.258 314.824 242.856 314.049C242.453 313.274 242.215 312.423 242.156 311.55L232.451 164.106C232.384 163.147 232.522 162.185 232.855 161.285C233.189 160.385 233.71 159.567 234.385 158.887C235.059 158.208 235.87 157.682 236.763 157.345C237.656 157.009 238.61 156.87 239.562 156.937L402.248 167.4C403.74 167.494 405.149 168.122 406.224 169.169C407.298 170.217 407.967 171.616 408.11 173.116L417.431 285.394C417.534 287.084 417.012 288.753 415.964 290.078C414.917 291.402 413.419 292.287 411.762 292.563V292.563Z" fill="#63737A"/>
<path d="M416.182 292.369L253.015 317.266C252.157 317.399 251.282 317.352 250.443 317.126C249.605 316.901 248.822 316.502 248.145 315.956C247.467 315.409 246.91 314.727 246.507 313.952C246.105 313.177 245.867 312.326 245.808 311.453L236.006 163.331C235.935 162.359 236.072 161.382 236.409 160.467C236.745 159.553 237.274 158.723 237.958 158.033C238.642 157.343 239.466 156.811 240.373 156.471C241.28 156.132 242.249 155.993 243.213 156.066L406.573 166.528C408.079 166.628 409.499 167.269 410.575 168.336C411.651 169.403 412.311 170.824 412.434 172.341L421.852 285.103C422.039 286.822 421.551 288.546 420.49 289.904C419.43 291.263 417.883 292.148 416.182 292.369V292.369Z" fill="#22272E"/>
<path d="M309.806 241.606L263.873 244.125C263.174 244.157 262.49 243.911 261.969 243.44C261.448 242.969 261.131 242.31 261.087 241.606L258.396 202.469C258.375 202.098 258.429 201.727 258.554 201.377C258.68 201.028 258.874 200.708 259.126 200.436C259.377 200.165 259.68 199.947 260.017 199.797C260.354 199.647 260.718 199.567 261.087 199.562L307.019 199.853C307.704 199.842 308.366 200.098 308.867 200.567C309.368 201.037 309.67 201.683 309.71 202.372L312.401 238.7C312.424 239.064 312.375 239.428 312.257 239.772C312.138 240.117 311.952 240.433 311.711 240.704C311.469 240.975 311.176 241.194 310.849 241.349C310.522 241.504 310.167 241.592 309.806 241.606V241.606Z" fill="#3BACB6"/>
<path d="M359.199 226.494L320.761 227.85C320.062 227.882 319.378 227.636 318.857 227.165C318.336 226.694 318.019 226.035 317.974 225.331L316.341 202.759C316.32 202.388 316.374 202.017 316.499 201.668C316.625 201.319 316.819 200.999 317.07 200.727C317.322 200.455 317.625 200.238 317.962 200.088C318.299 199.938 318.663 199.858 319.031 199.853L357.469 200.144C358.144 200.164 358.789 200.43 359.284 200.893C359.779 201.357 360.09 201.985 360.159 202.663L361.793 223.588C361.825 223.953 361.782 224.321 361.666 224.669C361.551 225.016 361.366 225.336 361.122 225.609C360.879 225.882 360.583 226.101 360.252 226.253C359.921 226.405 359.562 226.487 359.199 226.494V226.494Z" fill="#FFE779"/>
<path d="M402.729 225.041L370.346 226.203C369.646 226.235 368.963 225.989 368.442 225.518C367.92 225.047 367.603 224.389 367.559 223.684L365.925 203.244C365.904 202.873 365.958 202.502 366.084 202.152C366.209 201.803 366.403 201.483 366.655 201.211C366.906 200.94 367.21 200.722 367.547 200.572C367.884 200.422 368.247 200.342 368.616 200.338L400.999 200.531C401.675 200.551 402.32 200.817 402.814 201.281C403.309 201.744 403.621 202.373 403.69 203.05L405.228 222.134C405.263 222.493 405.226 222.854 405.118 223.198C405.01 223.541 404.834 223.858 404.6 224.13C404.366 224.403 404.079 224.624 403.758 224.78C403.436 224.937 403.086 225.025 402.729 225.041V225.041Z" fill="#F4C2C9"/>
<path d="M312.689 279.581L266.756 284.619C266.395 284.663 266.028 284.632 265.678 284.527C265.329 284.423 265.004 284.247 264.725 284.011C264.446 283.775 264.217 283.483 264.054 283.155C263.891 282.826 263.797 282.467 263.778 282.1L262.048 256.816C262.013 256.1 262.253 255.398 262.718 254.857C263.184 254.315 263.839 253.976 264.546 253.909L310.575 250.809C310.929 250.783 311.284 250.827 311.62 250.94C311.957 251.052 312.268 251.231 312.536 251.465C312.804 251.699 313.023 251.984 313.181 252.304C313.34 252.623 313.434 252.972 313.458 253.328L315.188 276.675C315.194 277.383 314.944 278.069 314.483 278.604C314.023 279.139 313.385 279.487 312.689 279.581Z" stroke="#63737A" stroke-width="1.8" stroke-linecap="round" stroke-linejoin="round"/>
<path d="M363.523 278.613L325.181 283.166C324.819 283.21 324.452 283.179 324.103 283.074C323.753 282.97 323.429 282.794 323.15 282.558C322.87 282.322 322.642 282.03 322.479 281.701C322.316 281.373 322.222 281.014 322.202 280.647L319.127 238.894C319.077 238.175 319.312 237.465 319.78 236.92C320.249 236.375 320.912 236.04 321.626 235.988L360.063 234.147C360.762 234.115 361.446 234.361 361.967 234.832C362.488 235.303 362.805 235.961 362.85 236.666L365.925 275.706C365.967 276.408 365.741 277.099 365.295 277.639C364.849 278.179 364.215 278.527 363.523 278.613Z" fill="#F4C2C9"/>
<path d="M355.547 241.412L327.968 243.059C327.812 243.058 327.657 243.092 327.516 243.158C327.374 243.224 327.248 243.32 327.147 243.44C327.047 243.56 326.973 243.701 326.932 243.853C326.891 244.005 326.884 244.164 326.911 244.319L328.16 261.562C328.167 261.717 328.205 261.869 328.273 262.008C328.341 262.147 328.436 262.27 328.554 262.371C328.671 262.471 328.807 262.545 328.955 262.589C329.102 262.634 329.257 262.647 329.409 262.628L356.988 260.206C357.142 260.199 357.292 260.161 357.43 260.092C357.568 260.024 357.69 259.928 357.79 259.809C357.889 259.691 357.963 259.554 358.007 259.405C358.051 259.257 358.064 259.101 358.045 258.947L356.796 242.478C356.736 242.185 356.58 241.921 356.354 241.728C356.127 241.535 355.843 241.424 355.547 241.412V241.412Z" fill="#3BACB6"/>
<path d="M406.573 269.022L374.189 272.606C373.827 272.651 373.46 272.619 373.111 272.515C372.761 272.41 372.437 272.235 372.157 271.998C371.878 271.762 371.65 271.471 371.487 271.142C371.324 270.813 371.23 270.454 371.21 270.087L368.616 236.472C368.565 235.753 368.8 235.043 369.269 234.498C369.737 233.953 370.401 233.618 371.114 233.566L403.498 232.016C404.197 231.984 404.88 232.23 405.402 232.701C405.923 233.172 406.24 233.83 406.284 234.534L408.879 266.116C408.919 266.459 408.891 266.808 408.796 267.141C408.702 267.474 408.543 267.784 408.328 268.055C408.113 268.325 407.848 268.55 407.546 268.716C407.245 268.882 406.914 268.986 406.573 269.022V269.022Z" fill="#FFE779"/>
<path d="M289.242 263.597L289.819 270.766" stroke="#63737A" stroke-width="1.8" stroke-linecap="round" stroke-linejoin="round"/>
<path d="M286.167 267.472L292.894 266.891" stroke="#63737A" stroke-width="1.8" stroke-linecap="round" stroke-linejoin="round"/>
<path d="M335.271 271.541C335.079 269.603 333.638 268.053 331.908 268.247C331.01 268.402 330.207 268.903 329.669 269.644C329.13 270.386 328.9 271.309 329.025 272.219C329.032 272.666 329.128 273.107 329.307 273.516C329.486 273.925 329.744 274.293 330.067 274.6C330.389 274.907 330.769 275.146 331.184 275.303C331.599 275.459 332.041 275.531 332.484 275.513C333.341 275.291 334.091 274.77 334.601 274.042C335.112 273.315 335.349 272.428 335.271 271.541Z" fill="#282828"/>
<path d="M340.845 270.959L358.814 269.119" stroke="#282828" stroke-width="1.8" stroke-linecap="round" stroke-linejoin="round"/>
<path d="M380.819 242.672C380.805 241.861 380.492 241.085 379.942 240.494C379.391 239.903 378.642 239.54 377.84 239.475C376.303 239.572 375.246 241.122 375.342 242.962C375.438 244.803 376.783 246.256 378.321 246.159C379.858 246.062 381.012 244.512 380.819 242.672Z" fill="#3BACB6"/>
<path d="M385.72 242.381L401.191 241.412" stroke="#282828" stroke-width="1.8" stroke-linecap="round" stroke-linejoin="round"/>
<path d="M381.685 253.038C381.492 251.197 380.243 249.841 378.706 249.937C377.168 250.034 376.111 251.681 376.207 253.522C376.303 255.363 377.745 256.816 379.186 256.622C379.985 256.473 380.694 256.014 381.161 255.344C381.628 254.674 381.816 253.846 381.685 253.038V253.038Z" fill="#3BACB6"/>
<path d="M386.489 252.65L402.056 251.391" stroke="#282828" stroke-width="1.8" stroke-linecap="round" stroke-linejoin="round"/>
<path d="M382.549 263.403C382.357 261.562 381.108 260.206 379.57 260.303C378.033 260.4 376.976 262.047 377.072 263.887C377.168 265.728 378.609 267.084 380.051 266.987C380.841 266.821 381.538 266.358 382.002 265.692C382.466 265.027 382.661 264.209 382.549 263.403V263.403Z" fill="#3BACB6"/>
<path d="M387.354 262.919L402.825 261.369" stroke="#282828" stroke-width="1.8" stroke-linecap="round" stroke-linejoin="round"/>
<path d="M274.444 215.256L268.198 215.353C267.913 215.338 267.642 215.223 267.432 215.029C267.221 214.835 267.084 214.572 267.045 214.287L266.564 207.7C266.559 207.546 266.585 207.392 266.641 207.249C266.697 207.105 266.782 206.975 266.89 206.866C266.998 206.757 267.127 206.671 267.27 206.615C267.412 206.558 267.564 206.532 267.717 206.537H273.963C274.248 206.553 274.519 206.667 274.73 206.862C274.94 207.056 275.077 207.318 275.117 207.603L275.597 214.094C275.561 214.389 275.428 214.664 275.219 214.875C275.01 215.085 274.737 215.22 274.444 215.256V215.256Z" fill="#FFE779"/>
<path d="M281.17 206.538L302.792 206.441" stroke="#282828" stroke-width="1.8" stroke-linecap="round" stroke-linejoin="round"/>
<path d="M281.555 212.156L303.176 211.963" stroke="#282828" stroke-width="1.8" stroke-linecap="round" stroke-linejoin="round"/>
<path d="M378.129 213.706L373.228 213.803C373.073 213.781 372.927 213.714 372.808 213.611C372.689 213.508 372.601 213.373 372.555 213.222L372.075 206.925C372.072 206.835 372.088 206.746 372.121 206.662C372.154 206.579 372.203 206.503 372.266 206.44C372.329 206.376 372.404 206.326 372.487 206.293C372.57 206.26 372.659 206.244 372.748 206.247H377.648C377.804 206.269 377.949 206.336 378.069 206.439C378.188 206.542 378.275 206.677 378.321 206.828L378.802 213.028C378.79 213.204 378.716 213.37 378.592 213.495C378.468 213.62 378.304 213.695 378.129 213.706V213.706Z" fill="#282828"/>
<path d="M382.741 206.15H398.789" stroke="#282828" stroke-width="1.8" stroke-linecap="round" stroke-linejoin="round"/>
<path d="M383.222 211.091L399.173 210.897" stroke="#282828" stroke-width="1.8" stroke-linecap="round" stroke-linejoin="round"/>
<path d="M373.036 219.131L399.75 218.453" stroke="#282828" stroke-width="1.8" stroke-linecap="round" stroke-linejoin="round"/>
<path d="M275.501 230.272L269.255 230.466C268.965 230.467 268.685 230.358 268.472 230.16C268.258 229.963 268.126 229.691 268.102 229.4L267.621 222.812C267.612 222.666 267.633 222.518 267.681 222.379C267.73 222.241 267.806 222.113 267.905 222.005C268.003 221.896 268.123 221.809 268.256 221.748C268.389 221.687 268.532 221.654 268.678 221.65L274.924 221.456C275.209 221.471 275.48 221.586 275.691 221.78C275.901 221.975 276.038 222.237 276.077 222.522L276.558 229.012C276.577 229.319 276.478 229.622 276.281 229.856C276.084 230.091 275.804 230.24 275.501 230.272V230.272Z" fill="#FFE779"/>
<path d="M282.228 221.359L303.849 220.778" stroke="#282828" stroke-width="1.8" stroke-linecap="round" stroke-linejoin="round"/>
<path d="M282.612 227.075L304.233 226.397" stroke="#282828" stroke-width="1.8" stroke-linecap="round" stroke-linejoin="round"/>
<path d="M291.26 183.384L258.877 182.416C258.362 182.403 257.87 182.197 257.497 181.839C257.124 181.481 256.897 180.996 256.859 180.478L256.474 175.344C256.451 175.053 256.489 174.761 256.586 174.487C256.683 174.213 256.836 173.962 257.035 173.751C257.235 173.541 257.477 173.375 257.744 173.266C258.012 173.156 258.3 173.105 258.588 173.116L290.972 174.472C291.487 174.485 291.979 174.69 292.352 175.048C292.724 175.407 292.952 175.892 292.99 176.409L293.374 181.156C293.39 181.445 293.347 181.734 293.248 182.005C293.148 182.276 292.995 182.524 292.797 182.732C292.598 182.941 292.36 183.107 292.096 183.219C291.831 183.331 291.547 183.387 291.26 183.384Z" fill="#3BACB6"/>
<path d="M324.028 206.344L354.586 206.247" stroke="#282828" stroke-width="1.8" stroke-linecap="round" stroke-linejoin="round"/>
<path d="M324.413 211.769L354.97 211.381" stroke="#282828" stroke-width="1.8" stroke-linecap="round" stroke-linejoin="round"/>
<path d="M324.989 220.294L341.421 219.906" stroke="#282828" stroke-width="1.8" stroke-linecap="round" stroke-linejoin="round"/>
<path d="M401.768 182.9C401.755 182.223 401.508 181.572 401.069 181.059C400.63 180.546 400.028 180.203 399.365 180.091C398.212 179.994 397.251 181.253 397.444 182.706C397.427 183.392 397.663 184.059 398.107 184.578C398.551 185.097 399.171 185.432 399.846 185.516C400.999 185.612 401.864 184.353 401.768 182.9Z" fill="#63737A"/>
<path d="M393.216 182.609C393.214 181.929 392.971 181.272 392.53 180.756C392.09 180.241 391.481 179.902 390.813 179.8C389.564 179.703 388.699 180.962 388.795 182.512C388.798 183.208 389.054 183.878 389.515 184.396C389.975 184.914 390.608 185.244 391.294 185.322C392.447 185.322 393.312 184.063 393.216 182.609Z" fill="#63737A"/>
<path d="M384.375 182.222C384.356 181.521 384.097 180.848 383.641 180.318C383.186 179.788 382.562 179.434 381.877 179.316C380.627 179.219 379.666 180.478 379.762 182.028C379.781 182.729 380.041 183.402 380.496 183.932C380.952 184.462 381.575 184.816 382.261 184.934C383.606 185.031 384.471 183.772 384.375 182.222Z" fill="#63737A"/>
<path d="M440.782 195.591L398.116 194.816C397.282 194.817 396.479 194.497 395.872 193.92C395.264 193.344 394.898 192.555 394.849 191.716L391.005 144.344C390.981 143.969 391.037 143.592 391.169 143.241C391.3 142.889 391.505 142.569 391.768 142.304C392.032 142.038 392.349 141.832 392.698 141.699C393.047 141.566 393.42 141.51 393.792 141.534L436.65 146.088C437.431 146.162 438.161 146.515 438.707 147.084C439.253 147.652 439.58 148.398 439.629 149.187L443.377 192.684C443.416 193.051 443.378 193.422 443.265 193.773C443.153 194.124 442.968 194.447 442.723 194.722C442.478 194.996 442.179 195.215 441.844 195.365C441.51 195.514 441.148 195.591 440.782 195.591V195.591Z" fill="#F8AB5D"/>
<path d="M443.088 194.816L400.423 194.041C399.588 194.042 398.785 193.722 398.178 193.145C397.57 192.569 397.204 191.78 397.155 190.941L393.312 143.569C393.288 143.194 393.343 142.817 393.475 142.466C393.606 142.114 393.811 141.794 394.075 141.529C394.338 141.263 394.655 141.057 395.004 140.924C395.353 140.791 395.726 140.735 396.098 140.759L438.956 145.312C439.737 145.387 440.467 145.74 441.013 146.309C441.559 146.877 441.886 147.623 441.935 148.412L445.683 191.909C445.713 192.274 445.669 192.642 445.553 192.989C445.437 193.336 445.252 193.656 445.009 193.928C444.766 194.2 444.47 194.419 444.139 194.572C443.809 194.725 443.451 194.808 443.088 194.816V194.816Z" fill="#FFE779"/>
<path d="M411.954 149.575L434.536 151.706" stroke="#63737A" stroke-width="1.8" stroke-linecap="round" stroke-linejoin="round"/>
<path d="M412.338 154.225L434.92 156.162" stroke="#63737A" stroke-width="1.8" stroke-linecap="round" stroke-linejoin="round"/>
<path d="M413.203 164.881L435.881 166.431" stroke="#63737A" stroke-width="1.8" stroke-linecap="round" stroke-linejoin="round"/>
<path d="M413.587 169.434L436.169 170.791" stroke="#63737A" stroke-width="1.8" stroke-linecap="round" stroke-linejoin="round"/>
<path d="M414.548 180.188L437.13 181.156" stroke="#63737A" stroke-width="1.8" stroke-linecap="round" stroke-linejoin="round"/>
<path d="M414.933 184.741L437.515 185.516" stroke="#63737A" stroke-width="1.8" stroke-linecap="round" stroke-linejoin="round"/>
<path d="M404.17 152.191L405.324 153.644L406.957 151.416" stroke="#3BACB6" stroke-width="1.8" stroke-linecap="round" stroke-linejoin="round"/>
<path d="M405.419 167.691L406.573 169.047L408.302 166.819" stroke="#3BACB6" stroke-width="1.8" stroke-linecap="round" stroke-linejoin="round"/>
<path d="M406.669 182.9L407.918 184.256L409.552 181.931" stroke="#3BACB6" stroke-width="1.8" stroke-linecap="round" stroke-linejoin="round"/>
<path d="M461.058 263.694C461.058 263.694 455.1 276.191 454.62 284.134C454.139 292.078 462.499 323.95 476.145 348.266C476.145 348.266 489.021 344.003 489.021 340.031C489.021 336.059 481.43 289.075 481.91 287.719C482.391 286.363 487.676 276.384 487.676 272.122C487.676 267.859 463.076 259.044 461.058 263.694Z" fill="#F4C2C9"/>
<path d="M487.676 272.122C487.676 267.859 463.172 259.044 461.154 263.694C461.154 263.694 460.385 265.438 459.328 267.956C467.112 274.059 475.472 279.291 484.985 281.034C486.33 277.934 487.676 274.253 487.676 272.122Z" fill="#E26E85"/>
<path d="M486.619 210.606C486.619 210.606 477.009 213.9 469.706 230.563C462.403 247.225 454.62 261.175 454.62 261.175C454.62 261.175 466.631 273.187 482.006 279.291C497.381 285.587 497.958 212.156 486.619 210.606Z" fill="#3BACB6"/>
<path d="M457.31 256.234C457.31 256.234 473.742 269.797 489.021 275.706" stroke="#282828" stroke-width="1.8" stroke-linecap="round" stroke-linejoin="round"/>
<path d="M518.714 571.95C518.714 571.95 517.849 592.294 518.041 594.231C518.233 596.169 511.315 600.334 502.762 600.044C494.21 599.753 493.441 597.234 493.441 597.234C493.441 597.234 491.519 575.244 491.327 572.144C491.135 569.044 516.984 567.784 518.714 571.95Z" fill="#F4C2C9"/>
<path d="M518.233 583.672C518.426 577.859 518.714 571.95 518.714 571.95C516.984 567.784 491.135 569.044 491.327 572.144C491.423 573.597 491.904 579.022 492.288 584.447C499.88 588.225 509.873 587.256 518.233 583.672Z" fill="#22272E"/>
<path d="M518.041 593.65C518.041 593.65 518.81 599.366 519.098 605.566C519.387 611.766 520.348 623.1 519.291 625.038C518.234 626.975 512.372 628.622 498.63 629.688C484.889 630.753 472.205 629.784 469.995 628.041C467.784 626.297 468.457 623.681 470.571 621.647C472.685 619.613 481.045 610.603 484.505 606.922C489.021 602.078 492.288 597.138 492.288 596.556C492.577 594.231 493.057 594.231 493.057 594.231C493.057 594.231 493.634 595.684 494.402 595.588C495.171 595.491 496.228 591.131 500.841 592.197C505.453 593.263 507.375 596.459 509.105 596.459C510.834 596.459 515.543 595.781 518.041 593.65Z" fill="#22272E"/>
<path d="M554.749 576.019C554.749 576.019 557.344 596.944 557.824 598.203C558.305 599.462 563.109 602.95 570.604 602.562C578.1 602.175 580.983 599.947 581.271 599.462C581.559 598.978 581.079 575.05 580.887 573.5C580.694 571.95 556.479 572.337 554.749 576.019Z" fill="#F4C2C9"/>
<path d="M581.175 584.253C581.079 578.925 580.887 573.984 580.791 573.306C580.503 571.756 556.479 572.241 554.653 575.922C554.653 575.922 555.23 580.572 555.903 585.609C564.282 587.6 573.052 587.129 581.175 584.253V584.253Z" fill="#22272E"/>
<path d="M557.44 596.362C557.232 597.871 557.168 599.395 557.248 600.916C557.344 602.175 557.44 603.919 557.44 606.05C557.536 610.506 557.92 625.909 558.977 628.138C560.034 630.366 572.142 632.206 581.271 632.303C590.4 632.4 597.126 629.978 598.184 627.459C599.241 624.941 598.664 621.259 595.493 617.191C592.322 613.122 585.019 606.825 584.154 603.822C583.441 601.259 582.508 598.763 581.367 596.362C580.708 597.295 579.812 598.031 578.773 598.494C577.523 598.881 575.698 593.65 571.758 593.456C567.818 593.262 566.088 594.812 563.59 598.494C561.344 598.607 559.142 597.844 557.44 596.362V596.362Z" fill="#22272E"/>
<path d="M473.165 323.369C471.514 331.557 470.358 339.839 469.706 348.169C468.553 362.409 472.589 450.662 473.165 457.541C473.742 464.419 475.952 503.653 478.451 522.737C480.469 538.431 479.027 570.109 483.736 574.566C488.444 579.022 502.858 581.444 511.795 579.022C520.732 576.6 524.864 572.144 525.921 568.462C526.978 564.781 522.75 536.784 523.038 522.544C523.326 508.303 523.038 466.259 522.558 456.281C522.558 456.281 526.497 405.325 531.206 393.7C535.915 382.075 542.737 339.256 529.669 326.856C516.408 314.456 474.319 321.334 473.165 323.369Z" fill="#22272E"/>
<path d="M494.21 328.988C494.21 328.988 494.114 348.169 494.883 362.506C495.022 366.865 495.504 371.206 496.324 375.488C498.726 385.563 503.915 386.338 507.855 388.663C511.795 390.988 525.921 448.047 531.686 462.869C531.686 462.869 536.107 496.969 539.566 517.313C543.026 537.656 542.449 562.263 545.044 570.691C547.638 579.119 562.821 580.766 570.22 580.088C577.619 579.409 587.517 576.503 587.229 567.784C586.94 559.066 585.499 534.266 584.25 513.147C583.001 492.028 580.598 460.544 580.022 453.181C580.022 453.181 577.139 418.306 575.601 400.384C574.064 382.463 574.929 364.153 572.622 333.25C570.124 302.25 494.114 311.744 494.21 328.988Z" fill="#22272E"/>
<path d="M494.883 362.506C495.022 366.865 495.504 371.206 496.324 375.487C498.727 385.562 503.916 386.338 507.855 388.663C511.795 390.988 525.921 448.047 531.687 462.869" stroke="#63737A" stroke-width="1.8" stroke-linecap="round" stroke-linejoin="round"/>
<path d="M507.856 388.663C507.856 388.663 496.613 382.85 491.616 384.981" stroke="#63737A" stroke-width="1.8" stroke-linecap="round" stroke-linejoin="round"/>
<path d="M490.655 471.684C497.66 471.684 503.339 465.395 503.339 457.637C503.339 449.88 497.66 443.591 490.655 443.591C483.649 443.591 477.97 449.88 477.97 457.637C477.97 465.395 483.649 471.684 490.655 471.684Z" stroke="#63737A" stroke-width="1.8" stroke-linecap="round" stroke-linejoin="round"/>
<path d="M556.959 470.812C564.177 470.812 570.028 464.524 570.028 456.766C570.028 449.008 564.177 442.719 556.959 442.719C549.742 442.719 543.891 449.008 543.891 456.766C543.891 464.524 549.742 470.812 556.959 470.812Z" stroke="#63737A" stroke-width="1.8" stroke-linecap="round" stroke-linejoin="round"/>
<path d="M496.228 585.9C496.076 584.937 496.076 583.956 496.228 582.994" stroke="#63737A" stroke-width="1.8" stroke-linecap="round" stroke-linejoin="round"/>
<path d="M504.204 587.159V582.994" stroke="#63737A" stroke-width="1.8" stroke-linecap="round" stroke-linejoin="round"/>
<path d="M513.909 585.222C513.909 585.222 514.007 582.8 513.909 581.734" stroke="#63737A" stroke-width="1.8" stroke-linecap="round" stroke-linejoin="round"/>
<path d="M560.034 586.481C560.034 586.481 559.554 583.866 559.554 583.091" stroke="#63737A" stroke-width="1.8" stroke-linecap="round" stroke-linejoin="round"/>
<path d="M569.644 586.869C569.743 585.482 569.743 584.09 569.644 582.703" stroke="#63737A" stroke-width="1.8" stroke-linecap="round" stroke-linejoin="round"/>
<path d="M577.908 585.319C578.01 584.223 578.01 583.12 577.908 582.025" stroke="#63737A" stroke-width="1.8" stroke-linecap="round" stroke-linejoin="round"/>
<path d="M487.195 605.469C487.195 605.469 494.498 599.559 508.816 607.697" stroke="white" stroke-width="1.8" stroke-linecap="round" stroke-linejoin="round"/>
<path d="M481.718 612.928C481.718 612.928 490.751 605.662 504.204 614.478" stroke="white" stroke-width="1.8" stroke-linecap="round" stroke-linejoin="round"/>
<path d="M586.364 609.731C586.364 609.731 577.619 605.856 565.8 612.153" stroke="white" stroke-width="1.8" stroke-linecap="round" stroke-linejoin="round"/>
<path d="M590.304 616.319C590.304 616.319 580.214 611.863 568.01 619.903" stroke="white" stroke-width="1.8" stroke-linecap="round" stroke-linejoin="round"/>
<path d="M533.128 207.216C533.128 207.216 537.933 208.669 548.119 208.863C558.305 209.056 569.932 212.059 574.449 217.775C578.965 223.491 580.406 265.631 579.734 284.716C579.061 303.8 565.512 332.184 565.512 332.184C565.512 332.184 533.128 335.866 506.606 334.606C480.085 333.347 473.742 327.438 471.917 325.597C470.091 323.756 469.034 319.3 470.091 317.363C471.148 315.425 476.337 300.409 478.259 285.975C480.181 271.541 476.145 251.391 477.97 233.663C479.796 215.934 486.619 210.703 486.619 210.703C486.619 210.703 495.171 207.797 509.97 207.313C517.683 206.882 525.412 206.849 533.128 207.216V207.216Z" fill="#FFE779"/>
<path d="M495.075 203.341C495.075 203.341 482.679 222.522 486.619 262.919C490.558 303.316 473.262 324.144 481.141 342.744" stroke="white" stroke-width="1.8" stroke-linecap="round" stroke-linejoin="round"/>
<path d="M562.052 206.925C562.052 206.925 546.965 209.444 543.218 235.116C539.47 260.787 549.368 295.081 547.542 314.359C545.716 333.638 540.623 344.972 540.623 344.972" stroke="white" stroke-width="1.8" stroke-linecap="round" stroke-linejoin="round"/>
<path d="M563.686 338.772C563.686 338.772 568.779 290.431 563.686 263.694C558.593 236.956 570.124 213.706 583.097 216.903" stroke="white" stroke-width="1.8" stroke-linecap="round" stroke-linejoin="round"/>
<path d="M519.098 340.806C519.098 340.806 523.326 309.419 521.885 281.325C521.308 270.766 515.254 218.938 537.644 202.566" stroke="white" stroke-width="1.8" stroke-linecap="round" stroke-linejoin="round"/>
<path d="M495.075 338.772C495.075 338.772 501.705 299.247 501.321 275.997C500.936 252.747 499.015 203.534 510.642 195.591" stroke="white" stroke-width="1.8" stroke-linecap="round" stroke-linejoin="round"/>
<path d="M531.687 258.269C535.136 258.269 537.933 255.45 537.933 251.972C537.933 248.494 535.136 245.675 531.687 245.675C528.237 245.675 525.44 248.494 525.44 251.972C525.44 255.45 528.237 258.269 531.687 258.269Z" fill="#F8AB5D"/>
<path d="M510.738 203.534C508.144 203.631 506.126 205.181 504.3 207.022C502.98 208.319 502.048 209.964 501.61 211.769C497.958 229.594 503.531 251.1 510.642 250.906C519.579 250.616 531.591 234.244 541.008 215.644C544.852 207.991 537.453 202.662 533.128 202.662C529.765 202.566 516.12 203.244 510.738 203.534Z" fill="#3BACB6"/>
<path d="M551.77 165.85C551.533 171.34 549.983 176.691 547.254 181.447C542.737 189.197 537.26 193.266 535.434 196.753C533.608 200.241 534.089 191.134 535.434 186.775C536.78 182.416 544.755 159.166 551.77 165.85Z" fill="#22272E"/>
<path d="M508.72 195.3C508.72 195.3 507.663 204.697 506.991 208.281C506.318 211.866 504.78 221.262 516.696 221.844C527.362 222.425 533.128 214.094 535.242 210.025C535.901 208.812 536.201 207.433 536.107 206.053C535.819 201.791 535.242 191.328 535.53 182.803C535.915 171.953 508.72 187.647 508.72 195.3Z" fill="#F4C2C9"/>
<path d="M529.861 195.978C524.191 200.531 515.831 202.663 507.951 201.5C507.663 204.019 507.279 206.731 506.99 208.281C506.894 208.766 506.798 209.347 506.702 210.025C516.408 210.509 527.458 205.666 529.861 195.978Z" fill="#E26E85"/>
<path d="M497.381 160.425C497.381 160.425 494.787 164.203 495.171 167.109C495.556 170.016 501.033 179.8 503.82 179.509C506.606 179.219 509.489 167.206 506.222 163.234C502.955 159.263 498.438 158.584 497.381 160.425Z" fill="#22272E"/>
<path d="M499.591 165.947C499.709 170.81 499.388 175.674 498.631 180.478C497.381 188.228 496.516 199.853 507.952 203.05C519.387 206.247 532.84 201.887 537.068 186C541.296 170.112 544.371 154.031 529.765 149.381C515.159 144.731 497.862 150.737 499.591 165.947Z" fill="#F4C2C9"/>
<path d="M504.492 173.697C504.762 174.854 504.696 176.065 504.3 177.184C504.107 177.75 503.814 178.275 503.435 178.734C503.267 178.98 503.074 179.208 502.858 179.413C502.762 179.509 502.666 179.703 502.57 179.8C502.474 180.083 502.474 180.389 502.57 180.672C502.721 181.098 502.949 181.492 503.243 181.834C503.896 182.635 504.675 183.322 505.549 183.869C504.365 183.95 503.195 183.568 502.282 182.803C501.743 182.4 501.314 181.867 501.033 181.253C500.867 180.906 500.78 180.525 500.78 180.139C500.78 179.753 500.867 179.373 501.033 179.025C501.176 178.679 501.408 178.378 501.705 178.153C501.897 177.959 502.09 177.863 502.186 177.669C502.504 177.305 502.793 176.916 503.051 176.506C503.644 175.633 504.128 174.69 504.492 173.697Z" fill="#22272E"/>
<path d="M536.491 178.153C535.362 176.085 534.644 173.814 534.377 171.469C533.8 167.012 529.092 167.303 526.882 159.069C524.672 150.834 519.29 161.006 510.738 164.687C502.186 168.369 495.459 162.459 492 155.872C488.54 149.284 494.402 143.472 498.342 140.759C502.282 138.047 506.414 142.406 514.101 140.469C521.789 138.531 534.185 136.109 540.143 144.828C546.1 153.547 552.251 155.678 551.866 165.172C551.482 174.666 540.431 185.225 539.758 185.322C539.086 185.419 536.491 178.153 536.491 178.153Z" fill="#22272E"/>
<path d="M516.216 169.047C515.927 168.272 515.639 166.819 516.696 166.044C517.753 165.269 520.155 165.559 522.462 167.012C524.48 168.272 525.056 170.306 523.711 170.113C522.366 169.919 521.309 169.337 519.675 169.241C518.041 169.144 516.504 169.725 516.216 169.047Z" fill="#22272E"/>
<path d="M504.684 167.981C504.847 167.521 504.905 167.03 504.855 166.544C504.805 166.058 504.648 165.589 504.396 165.172C503.82 164.397 502.282 164.494 500.841 165.559C499.591 166.528 499.207 168.369 500.072 168.272C500.884 168.034 501.724 167.904 502.57 167.884C503.627 167.981 504.492 168.562 504.684 167.981Z" fill="#22272E"/>
<path d="M498.054 185.419C498.054 185.419 497.958 186.581 499.591 186.872C501.225 187.162 501.417 184.644 504.204 184.256C505.934 184.062 511.988 184.547 514.486 186.872C516.984 189.197 520.444 191.909 525.441 190.359C530.438 188.809 533.416 181.737 534.377 171.469C535.242 162.072 538.702 171.178 538.702 173.406C538.702 174.956 537.26 172.728 535.531 179.025C534.762 181.834 535.531 189.778 532.552 195.591C530.245 200.047 523.807 204.6 515.639 205.181C507.471 205.763 500.745 202.372 498.727 196.947C496.709 191.716 497.477 185.806 498.054 185.419Z" fill="#22272E"/>
<path d="M501.994 175.247C502.363 175.285 502.732 175.174 503.021 174.938C503.309 174.701 503.492 174.36 503.531 173.988L503.627 173.213C503.665 172.84 503.555 172.468 503.32 172.177C503.086 171.887 502.747 171.702 502.378 171.663V171.663C502.009 171.625 501.639 171.736 501.351 171.972C501.063 172.208 500.879 172.55 500.841 172.922L500.745 173.697C500.707 174.069 500.817 174.442 501.051 174.732C501.286 175.023 501.624 175.208 501.994 175.247V175.247Z" fill="#22272E"/>
<path d="M517.273 176.216C517.642 176.254 518.011 176.142 518.3 175.906C518.588 175.67 518.771 175.329 518.81 174.956L518.906 174.181C518.944 173.809 518.834 173.437 518.599 173.146C518.365 172.855 518.026 172.67 517.657 172.631V172.631C517.288 172.593 516.918 172.705 516.63 172.941C516.342 173.177 516.158 173.518 516.12 173.891L516.023 174.666C515.989 174.852 515.994 175.045 516.041 175.229C516.087 175.413 516.173 175.585 516.291 175.733C516.41 175.88 516.56 176 516.729 176.083C516.899 176.167 517.084 176.212 517.273 176.216V176.216Z" fill="#22272E"/>
<path d="M535.435 179.025C535.435 179.025 538.029 173.212 542.545 173.891C547.062 174.569 544.852 186.872 536.492 186.775" fill="#F4C2C9"/>
<path d="M542.257 178.25C542.029 177.993 541.771 177.766 541.488 177.572C541.2 177.475 541.296 177.669 541.104 177.766C541.104 177.863 540.912 178.638 540.816 179.316C540.724 180.062 540.496 180.785 540.143 181.447C539.976 181.86 539.712 182.225 539.374 182.512C539.204 182.658 538.997 182.753 538.777 182.787C538.556 182.821 538.331 182.793 538.125 182.706C538.272 182.629 538.401 182.519 538.5 182.385C538.6 182.251 538.669 182.096 538.702 181.931C538.798 181.641 538.798 181.35 538.894 181.059C538.949 180.344 539.045 179.632 539.182 178.928L539.47 177.766L539.759 177.184C539.855 177.087 539.855 176.991 540.047 176.894C540.239 176.797 540.335 176.7 540.431 176.603C540.701 176.472 540.997 176.405 541.296 176.409C541.595 176.488 541.863 176.657 542.065 176.894C542.186 177.095 542.265 177.319 542.298 177.552C542.331 177.785 542.317 178.023 542.257 178.25V178.25Z" fill="#22272E"/>
<path d="M508.72 190.844C510.36 191.53 512.151 191.764 513.909 191.522" stroke="#F4C2C9" stroke-width="1.8" stroke-linecap="round" stroke-linejoin="round"/>
<path d="M504.056 172.445C504.514 167.598 502.317 163.422 499.147 163.117C495.977 162.812 493.035 166.494 492.577 171.341C492.118 176.188 494.316 180.364 497.486 180.669C500.656 180.974 503.597 177.292 504.056 172.445Z" stroke="#22272E" stroke-width="1.8" stroke-linecap="round" stroke-linejoin="round"/>
<path d="M525.423 174.329C525.882 169.482 522.956 165.236 518.888 164.845C514.82 164.453 511.151 168.065 510.692 172.912C510.233 177.759 513.159 182.005 517.227 182.396C521.295 182.787 524.965 179.175 525.423 174.329Z" stroke="#22272E" stroke-width="1.8" stroke-linecap="round" stroke-linejoin="round"/>
<path d="M503.819 173.891C503.819 173.891 505.453 170.791 510.642 174.472" stroke="#22272E" stroke-width="1.8" stroke-linecap="round" stroke-linejoin="round"/>
<path d="M525.345 174.375L536.203 176.7" stroke="#22272E" stroke-width="1.8" stroke-linecap="round" stroke-linejoin="round"/>
<path d="M566.953 281.325L572.046 291.691C572.046 291.691 566.665 299.053 560.899 313.003C555.134 326.953 550.906 344.197 546.966 349.138C546.966 349.138 550.81 358.438 560.227 362.506C560.227 362.506 578.581 335.381 586.941 323.563C595.301 311.744 603.277 296.631 602.7 289.075C601.835 277.934 593.475 261.466 592.706 257.009C591.938 252.553 567.145 268.441 566.953 281.325Z" fill="#F4C2C9"/>
<path d="M592.61 257.009C591.938 252.65 567.145 268.441 566.953 281.325L567.722 282.778C576.462 276.257 586.291 271.368 596.742 268.344C594.724 263.306 592.898 258.947 592.61 257.009Z" fill="#E26E85"/>
<path d="M551.77 339.062C553.116 341.387 557.728 347.587 568.491 350.106C568.572 350.122 568.647 350.158 568.711 350.212C568.774 350.265 568.822 350.334 568.851 350.412C568.88 350.49 568.888 350.574 568.876 350.656C568.863 350.738 568.83 350.816 568.779 350.881L563.878 357.566C563.782 357.759 563.494 357.759 563.302 357.759C551.29 354.078 548.119 347.975 547.638 346.812C547.591 346.759 547.565 346.69 547.565 346.619C547.565 346.547 547.591 346.478 547.638 346.425L550.906 339.159C551.098 338.675 551.578 338.675 551.77 339.062Z" fill="#22272E"/>
<path d="M557.242 353.432C558.567 351.249 557.958 348.442 555.883 347.162C553.808 345.882 551.052 346.615 549.728 348.797C548.403 350.98 549.011 353.787 551.086 355.067C553.161 356.347 555.918 355.615 557.242 353.432Z" fill="white"/>
<path d="M569.74 217C570.863 216.803 572.018 216.915 573.084 217.324C574.149 217.734 575.085 218.425 575.794 219.325C578.004 222.134 581.656 227.559 586.172 236.859C593.764 252.456 599.049 262.725 599.049 262.725C599.049 262.725 572.719 277.062 566.953 281.325C566.953 281.325 556.287 263.209 552.828 255.653C549.464 248.484 550.425 220.584 569.74 217Z" fill="#3BACB6"/>
<path d="M563.686 275.706C573.824 268.356 584.674 262.059 596.07 256.913" stroke="#282828" stroke-width="1.8" stroke-linecap="round" stroke-linejoin="round"/>
<path d="M543.218 342.744C544.983 348.128 547.996 353.01 552.007 356.986C556.018 360.962 560.911 363.917 566.28 365.606" stroke="#63737A" stroke-width="1.8" stroke-linecap="round" stroke-linejoin="round"/>
<path d="M572.046 291.691C574.117 289.357 576.881 287.76 579.926 287.137" stroke="#E26E85" stroke-width="1.8" stroke-linecap="round" stroke-linejoin="round"/>
<path d="M714.457 315.909L629.414 305.35C628.091 305.19 626.885 304.509 626.057 303.457C625.229 302.405 624.847 301.066 624.993 299.731L634.026 214.675C634.207 213.074 634.908 211.579 636.021 210.422C637.134 209.265 638.595 208.513 640.176 208.281L728.198 196.269C728.972 196.161 729.76 196.233 730.502 196.481C731.244 196.728 731.919 197.144 732.476 197.696C733.033 198.249 733.457 198.922 733.715 199.666C733.973 200.409 734.058 201.202 733.964 201.984L720.895 310.969C720.68 312.479 719.885 313.844 718.68 314.769C717.475 315.693 715.958 316.103 714.457 315.909V315.909Z" fill="#63737A"/>
<path d="M711.574 315.619L626.531 304.962C625.208 304.802 624.002 304.122 623.174 303.07C622.347 302.018 621.964 300.679 622.111 299.344L631.143 214.287C631.324 212.687 632.026 211.191 633.138 210.035C634.251 208.878 635.712 208.125 637.293 207.894L725.315 195.881C726.089 195.773 726.877 195.846 727.619 196.093C728.361 196.341 729.036 196.757 729.593 197.309C730.15 197.861 730.574 198.535 730.832 199.278C731.09 200.022 731.175 200.815 731.081 201.597L718.012 310.581C717.808 312.104 717.019 313.486 715.815 314.428C714.611 315.37 713.088 315.798 711.574 315.619V315.619Z" fill="#22272E"/>
<path d="M708.403 236.569L641.81 239.959C641.544 239.98 641.277 239.941 641.028 239.845C640.779 239.748 640.554 239.597 640.37 239.403C640.186 239.208 640.047 238.974 639.964 238.719C639.88 238.463 639.855 238.192 639.888 237.925L641.522 222.909C641.568 222.488 641.754 222.096 642.051 221.796C642.348 221.497 642.738 221.309 643.156 221.262L710.325 214.578C710.605 214.55 710.888 214.587 711.152 214.686C711.417 214.784 711.655 214.942 711.85 215.148C712.044 215.353 712.19 215.601 712.275 215.871C712.361 216.142 712.384 216.428 712.343 216.709L710.133 235.116C710.133 235.794 709.364 236.472 708.403 236.569Z" fill="#3BACB6"/>
<path d="M658.819 226.494L702.926 222.909" stroke="#22272E" stroke-width="1.8" stroke-linecap="round" stroke-linejoin="round"/>
<path d="M658.242 232.209L681.977 230.562" stroke="#22272E" stroke-width="1.8" stroke-linecap="round" stroke-linejoin="round"/>
<path d="M651.162 231.213C652.019 229.612 651.653 227.738 650.345 227.026C649.037 226.315 647.282 227.037 646.426 228.638C645.569 230.239 645.935 232.113 647.243 232.824C648.551 233.536 650.306 232.814 651.162 231.213Z" fill="#22272E"/>
<path d="M704.655 267.278L638.831 266.116C638.579 266.103 638.331 266.041 638.103 265.932C637.874 265.823 637.669 265.669 637.5 265.48C637.33 265.291 637.199 265.07 637.114 264.83C637.029 264.59 636.993 264.336 637.005 264.081L638.639 249.163C638.678 248.705 638.889 248.28 639.228 247.974C639.567 247.668 640.01 247.504 640.465 247.516L706.769 245.384C707.039 245.383 707.306 245.439 707.552 245.548C707.799 245.657 708.02 245.818 708.201 246.019C708.382 246.22 708.52 246.457 708.604 246.715C708.689 246.972 708.718 247.245 708.691 247.516L706.577 265.728C706.478 266.167 706.233 266.559 705.884 266.841C705.535 267.122 705.102 267.276 704.655 267.278V267.278Z" fill="#F4C2C9"/>
<path d="M655.84 253.813L699.466 253.231" stroke="#22272E" stroke-width="1.8" stroke-linecap="round" stroke-linejoin="round"/>
<path d="M655.167 259.431H678.71" stroke="#22272E" stroke-width="1.8" stroke-linecap="round" stroke-linejoin="round"/>
<path d="M648.327 257.987C649.112 256.349 648.702 254.512 647.412 253.884C646.122 253.255 644.439 254.073 643.654 255.711C642.869 257.349 643.279 259.186 644.569 259.815C645.859 260.443 647.542 259.625 648.327 257.987Z" fill="#22272E"/>
<path d="M701.004 297.697L635.948 292.078C635.456 292.029 635.001 291.79 634.678 291.411C634.356 291.032 634.192 290.542 634.219 290.044L635.852 275.222C635.896 274.749 636.122 274.312 636.481 274.004C636.84 273.697 637.304 273.543 637.774 273.575L703.31 275.997C703.571 276.009 703.827 276.074 704.063 276.189C704.298 276.304 704.507 276.467 704.678 276.666C704.849 276.866 704.978 277.098 705.057 277.349C705.135 277.601 705.162 277.866 705.136 278.128L703.022 296.147C702.915 296.601 702.656 297.003 702.288 297.286C701.92 297.569 701.466 297.714 701.004 297.697V297.697Z" fill="#FFE779"/>
<path d="M652.861 280.938L695.911 283.262" stroke="#22272E" stroke-width="1.8" stroke-linecap="round" stroke-linejoin="round"/>
<path d="M652.188 286.459L675.443 288.106" stroke="#22272E" stroke-width="1.8" stroke-linecap="round" stroke-linejoin="round"/>
<path d="M645.558 283.881C646.269 282.209 645.777 280.392 644.46 279.824C643.143 279.255 641.499 280.149 640.789 281.821C640.078 283.493 640.57 285.31 641.887 285.879C643.204 286.448 644.848 285.553 645.558 283.881Z" fill="#22272E"/>
</g>
<defs>
<clipPath id="clip0_13_5">
<rect width="984" height="744" fill="white"/>
</clipPath>
</defs>
</svg>
